<svg width="20" height="20" viewBox="0 0 20 20" fill="none" xmlns="http://www.w3.org/2000/svg">
<path d="M6.00832 12.4998L2.21665 5.94984C2.05315 5.66723 1.97626 5.34283 1.99552 5.0169C2.01478 4.69098 2.12934 4.37789 2.32498 4.1165L3.66665 2.33317C3.8219 2.12618 4.0232 1.95817 4.25463 1.84246C4.48605 1.72675 4.74124 1.6665 4.99998 1.6665H15C15.2587 1.6665 15.5139 1.72675 15.7453 1.84246C15.9768 1.95817 16.1781 2.12618 16.3333 2.33317L17.6667 4.1165C17.8636 4.37705 17.9796 4.68971 18.0004 5.01565C18.0211 5.34158 17.9456 5.66643 17.7833 5.94984L13.9917 12.4998" stroke="#F0B100" stroke-width="1.66667" stroke-linecap="round" stroke-linejoin="round"/>
<path d="M9.16666 10.0002L4.26666 1.8335" stroke="#F0B100" stroke-width="1.66667" stroke-linecap="round" stroke-linejoin="round"/>
<path d="M10.8333 10.0002L15.7333 1.8335" stroke="#F0B100" stroke-width="1.66667" stroke-linecap="round" stroke-linejoin="round"/>
<path d="M6.66667 5.8335H13.3333" stroke="#F0B100" stroke-width="1.66667" stroke-linecap="round" stroke-linejoin="round"/>
<path d="M9.99999 18.3333C12.3012 18.3333 14.1667 16.4679 14.1667 14.1667C14.1667 11.8655 12.3012 10 9.99999 10C7.69881 10 5.83333 11.8655 5.83333 14.1667C5.83333 16.4679 7.69881 18.3333 9.99999 18.3333Z" stroke="#F0B100" stroke-width="1.66667" stroke-linecap="round" stroke-linejoin="round"/>
<path d="M9.99999 15.0002V13.3335H9.58333" stroke="#F0B100" stroke-width="1.66667" stroke-linecap="round" stroke-linejoin="round"/>
</svg>